# xmcd CD database file
#
# Track frame offsets:
#	150
#	17889
#	40567
#	61532
#	80803
#	97224
#	116806
#	137477
#	158276
#	176663
#
# Disc length: 2660 seconds
#
# Revision: 0
# Processed by: cddbd v1.5.1PL0 Copyright (c) Steve Scherf et al.
# Submitted via: CDex 1.51
#
DISCID=770a620a
DTITLE=Laurent Hounsavi - Paris-Cubano
DYEAR=2004
DGENRE=Salsa
TTITLE0=Le Lion est mort ce soir
TTITLE1=Avec toi je partirai
TTITLE2=Djalé
TTITLE3=Comme un obstacle
TTITLE4=Jiriri boum
TTITLE5=Mandjayi o
TTITLE6=Vamos mi amor
TTITLE7=Mindé sè
TTITLE8=Mon Cadeau
TTITLE9=Missè takplé
EXTD=YEAR: 2004
EXTT0=
EXTT1=
EXTT2=
EXTT3=
EXTT4=
EXTT5=
EXTT6=
EXTT7=
EXTT8=
EXTT9=
PLAYORDER=
